# xmcd CD database file
#
# Track frame offsets:
#	150
#	15433
#	30299
#	46130
#	60515
#	74465
#	84173
#	106699
#	122054
#	142252
#	159088
#	175359
#	192550
#	210527
#	226951
#
# Disc length: 3337 seconds
#
# Revision: 13
# Processed by: cddbd v1.5.2PL0 Copyright (c) Steve Scherf et al.
# Submitted via: CDex 1.83
#
DISCID=bb0d070f
DTITLE=The Black Keys - Brothers
DYEAR=2010
DGENRE=Rock
TTITLE0=Everlasting Light
TTITLE1=Next Girl
TTITLE2=Tighten Up
TTITLE3=Howlin' for You
TTITLE4=She's Long Gone
TTITLE5=Black Mud
TTITLE6=The Only One
TTITLE7=Too Afraid to Love You
TTITLE8=Ten Cent Pistol
TTITLE9=Sinister Kid
TTITLE10=The Go Getter
TTITLE11=I'm Not the One
TTITLE12=Unknown Brother
TTITLE13=Never Gonna Give You Up
TTITLE14=These Days
EXTD=YEAR: 2010
EXTT0=
EXTT1=
EXTT2=
EXTT3=
EXTT4=
EXTT5=
EXTT6=
EXTT7=
EXTT8=
EXTT9=
EXTT10=
EXTT11=
EXTT12=
EXTT13=
EXTT14=
PLAYORDER=
